<svg xmlns="http://www.w3.org/2000/svg" viewBox="0 0 24 24" role="img" aria-labelledby="apple-title">
  <title id="apple-title">Apple</title>
  <path fill="currentColor" d="M17.04 12.55c-.03-2.44 2.01-3.62 2.1-3.68-1.14-1.66-2.9-1.89-3.52-1.91-1.5-.15-2.92.88-3.68.88-.77 0-1.94-.86-3.19-.84-1.64.02-3.15.95-3.99 2.42-1.7 2.94-.44 7.29 1.22 9.68.81 1.17 1.78 2.48 3.05 2.43 1.22-.05 1.68-.79 3.16-.79 1.47 0 1.89.79 3.18.76 1.31-.02 2.14-1.19 2.94-2.36.93-1.36 1.32-2.68 1.34-2.75-.03-.01-2.58-.99-2.61-3.84ZM14.65 5.38c.67-.81 1.12-1.94 1-3.06-.96.04-2.12.64-2.81 1.45-.62.72-1.16 1.87-1.01 2.97 1.07.08 2.15-.54 2.82-1.36Z"/>
</svg>
