<svg xmlns="http://www.w3.org/2000/svg" width="1024" height="1024" viewBox="0 0 1024 1024" fill="none">
  <title>Timo mascot</title>
  <path d="M141 505C141 467 165 438 198 438C231 438 254 467 254 505C254 544 231 572 198 572C165 572 141 544 141 505Z" fill="#319AA5"/>
  <path d="M770 505C770 467 794 438 827 438C860 438 883 467 883 505C883 544 860 572 827 572C794 572 770 544 770 505Z" fill="#319AA5"/>
  <path d="M217 553C217 425 322 316 468 288C489 198 565 118 628 143C678 163 681 239 641 301C709 277 779 294 803 343C828 394 793 450 730 478C777 518 806 570 806 627C806 751 674 852 512 852C350 852 217 751 217 627V553Z" fill="#319AA5"/>
  <path d="M221 613C255 755 377 852 512 852C674 852 806 751 806 627C806 595 797 565 781 537C743 682 607 759 460 730C353 709 276 662 221 613Z" fill="#2D696D"/>
  <ellipse cx="431" cy="474" rx="111" ry="99" fill="#FFFFFF"/>
  <ellipse cx="583" cy="474" rx="111" ry="99" fill="#FFFFFF"/>
  <path d="M373 470C394 424 452 424 473 470" stroke="#0A0A0A" stroke-width="36" stroke-linecap="round"/>
  <path d="M541 470C562 424 620 424 641 470" stroke="#0A0A0A" stroke-width="36" stroke-linecap="round"/>
  <path d="M377 321C419 299 468 288 520 288" stroke="#8BCED2" stroke-width="24" stroke-linecap="round"/>
</svg>
